<?xml version="1.0" standalone="no"?><!DOCTYPE svg PUBLIC "-//W3C//DTD SVG 1.1//EN" "http://www.w3.org/Graphics/SVG/1.1/DTD/svg11.dtd"><svg t="1663047472087" class="icon" viewBox="0 0 1024 1024" version="1.1" xmlns="http://www.w3.org/2000/svg" p-id="1752" xmlns:xlink="http://www.w3.org/1999/xlink" width="200" height="200"><path d="M38.4 57.08m314.11 0l271.78 0q314.11 0 314.11 314.11l0 271.78q0 314.11-314.11 314.11l-271.78 0q-314.11 0-314.11-314.11l0-271.78q0-314.11 314.11-314.11Z" fill="#FFD4B7" p-id="1753"></path><path d="M184.07 463.33V781.8c0 70.84 43.38 128.8 96.4 128.8h495c53 0 96.41-58 96.41-128.8V466.05c13.44-12.07 21.55-27.7 21.55-44.76a53.31 53.31 0 0 0-0.69-8.41h0.69l-135.61-193.8H301l-135.62 193.8h0.7a53.32 53.32 0 0 0-0.7 8.41c0 15.81 6.97 30.39 18.69 42.04z" fill="#606060" p-id="1754"></path><path d="M130.07 342v394.8c0 70.84 43.38 128.8 96.4 128.8h495c53 0 96.41-58 96.41-128.8V342z" fill="#F8E9AC" p-id="1755"></path><path d="M463.93 634.4V511.94c0-22-14.77-40-32.82-40H262.59c-18 0-32.82 18-32.82 40V634.4z" fill="#D8F1B1" p-id="1756"></path><path d="M587.83 540.24h62.54a50.08 50.08 0 0 1 50.08 50.08V865.6H537.74V590.32a50.08 50.08 0 0 1 50.09-50.08z" fill="#FFFFFF" p-id="1757"></path><path d="M122.57 342v385.4c0 30.28 4.25 59.9 18.58 87.06 17.24 32.69 48.33 58.57 86.6 58.63h492.58a85.57 85.57 0 0 0 40.5-10.18c44.42-23.79 64.35-78.24 64.52-126.13V342a7.61 7.61 0 0 0-7.5-7.5H158.11c-9 0-18-0.26-26.9 0h-1.14c-9.66 0-9.67 15 0 15h659.74c8.86 0 18.05 0.71 26.89 0h1.15l-7.5-7.5v394.64c-0.07 22.86-4.55 45.93-14.65 66.55-14.65 29.92-41.15 54.88-76 54.91H241.51c-16.17 0-31.37 0-46.33-7.85-40.26-21.18-57.48-70.68-57.61-113.69V342c0-9.64-15-9.66-15 0z" fill="#231815" p-id="1758"></path><path d="M471.43 634.4V529.23c0-18.9 0.55-37.83-13.56-52.76a38.25 38.25 0 0 0-28.05-12H290.21c-11.16 0-23.54-1.42-34.6 0.73-16.1 3.12-27.75 17.68-31.65 33-1.74 6.83-1.73 13.69-1.73 20.65V634.4a7.61 7.61 0 0 0 7.5 7.5h234.2c9.65 0 9.67-15 0-15H229.77l7.5 7.5V532.59c0-14.93-2.25-32.41 8.29-44.55 9.18-10.58 22-8.56 34.49-8.56h121.86c10.08 0 20.38-0.63 30.45 0 14.41 0.95 23.15 16.33 24 29.39 0.27 4.17 0.1 8.4 0.1 12.58V634.4c-0.03 9.65 14.97 9.66 14.97 0zM700.45 858.1H537.74l7.5 7.5V640.47c0-16.47-0.07-32.94 0-49.4a43.41 43.41 0 0 1 23.64-38.86c11.62-6 25.38-4.47 38-4.47h41.83c18 0 34.8 10 41.37 27.28 2.74 7.21 2.83 14.37 2.83 21.87V865.6c0 9.65 15 9.67 15 0V635c0-14.88 0.16-29.78 0-44.66-0.21-22.34-13.39-43.34-34.01-52.5-13.68-6.07-28.08-5.1-42.63-5.1h-42c-20.76 0-40.13 10.19-50.92 28.19-10.27 17.15-8.11 37.56-8.11 56.69v248a7.61 7.61 0 0 0 7.5 7.5h162.71c9.65-0.02 9.66-15.02 0-15.02z" fill="#231815" p-id="1759"></path><path d="M359.94 174.08H246.96l-135.58 193.8h181.78l66.78-193.8z" fill="#68BCAC" p-id="1760"></path><path d="M478.27 174.08H359.94l-66.78 193.8h185.11v-193.8z" fill="#FFD4B7" p-id="1761"></path><path d="M293.92 367.22a54.85 54.85 0 0 0-0.76 8.91c0 39.07 41.59 70.75 92.89 70.75s92.89-31.68 92.89-70.75a54.85 54.85 0 0 0-0.76-8.91z" fill="#FFD4B7" p-id="1762"></path><path d="M112.12 367.57a53.63 53.63 0 0 0-0.74 8.72c0 38.23 40.69 69.23 90.89 69.23s90.89-31 90.89-69.23a53.63 53.63 0 0 0-0.74-8.72z" fill="#68BCAC" p-id="1763"></path><path d="M485.77 367.86V174.08a7.6 7.6 0 0 0-7.5-7.5H359.94a7.71 7.71 0 0 0-7.23 5.5l-22.51 65.34-35.94 104.3-8.33 24.17c-1.61 4.66 2.61 9.49 7.23 9.49h0.66l-7.23-9.49c-5.75 40.93 26.26 72 63 83.21 38.94 11.87 87.43 4.34 116.51-25.7 15.13-15.62 22.4-35.94 19.36-57.53-0.56-4-5.68-6.23-9.22-5.24-4.32 1.21-5.81 5.18-5.24 9.23 4.62 32.85-25.59 57-54 65.19-32.89 9.53-73.43 4-98.74-20.47-12-11.59-19.67-27.77-17.3-44.7 0.67-4.73-1.86-9.5-7.23-9.5h-0.66l7.23 9.5 22.52-65.34 35.94-104.3 8.32-24.17-7.23 5.51h118.42l-7.5-7.5v193.78c0 9.65 15 9.67 15 0z" fill="#231815" p-id="1764"></path><path d="M359.94 166.58H249.45c-3.72 0-6.64 0.54-9.1 3.9-1 1.44-2 2.93-3.07 4.39l-41 58.57-57.44 82.1-22.16 31.69c-3.74 5.34-7.84 10.56-11.27 16.11-0.16 0.26-0.36 0.5-0.53 0.76-3.35 4.77 1.14 11.28 6.47 11.28h0.7l-7.23-9.49c-5.91 40.54 26 71.35 62.47 82.17 38.09 11.3 85.3 3.84 113.61-25.58 14.81-15.4 21.85-35.39 18.77-56.59l-7.24 9.49h0.7a7.71 7.71 0 0 0 7.23-5.5l22.52-65.34 35.94-104.3 8.32-24.17c3.16-9.15-11.33-13.07-14.46-4l-22.48 65.35-35.94 104.3-8.33 24.17 7.23-5.51h-0.7c-5.35 0-7.92 4.77-7.23 9.5 4.69 32.22-24.86 55.87-52.69 63.92-32.18 9.31-71.84 3.87-96.54-20.14-11.71-11.39-19.1-27.22-16.69-43.78 0.69-4.73-1.88-9.5-7.23-9.5h-0.7l6.48 11.29 45.81-65.48 73-104.37 16.76-24-6.43 3.76h113c9.59 0 9.61-15-0.06-15z" fill="#231815" p-id="1765"></path><path d="M590.84 174.08h112.98l135.58 193.8H657.62l-66.78-193.8z" fill="#FFD4B7" p-id="1766"></path><path d="M472.51 174.08h118.33l66.78 193.8H472.51v-193.8z" fill="#68BCAC" p-id="1767"></path><path d="M656.86 367.22a53.75 53.75 0 0 1 0.76 8.91c0 39.07-41.58 70.75-92.88 70.75s-92.89-31.68-92.89-70.75a53.75 53.75 0 0 1 0.76-8.91z" fill="#68BCAC" p-id="1768"></path><path d="M838.66 367.57a53.63 53.63 0 0 1 0.74 8.72c0 38.23-40.69 69.23-90.89 69.23s-90.89-31-90.89-69.23a52.54 52.54 0 0 1 0.75-8.72z" fill="#FFD4B7" p-id="1769"></path><path d="M664.86 365.89l-22.52-65.34-35.94-104.3-8.32-24.17a7.74 7.74 0 0 0-7.24-5.5H472.51a7.61 7.61 0 0 0-7.5 7.5v182.34c0 7.95-0.93 14.77-0.61 22.11 2.13 48.52 54.05 74.71 97.18 75.81 26.95 0.69 54.51-7.07 75.68-24.08 19.66-15.79 30.47-39.17 26.93-64.37l-7.19 9.49h0.66c9.66 0 9.67-15 0-15H657c-5.37 0-7.89 4.77-7.23 9.5 2.71 19.27-7.53 37.08-22.07 49-17 13.9-39.65 20.24-61.34 20.53-37.42 0.5-89.8-21.71-86.86-66.58 1.09-16.58 0.55-33.3 0.55-49.93V174.08l-7.5 7.5h118.29l-7.23-5.51 22.51 65.33 35.94 104.31 8.33 24.17c3.13 9.12 17.61 5.17 14.47-3.99z" fill="#231815" p-id="1770"></path><path d="M845.88 364.1l-27.62-39.48-56.64-81L716.41 179c-3.07-4.4-6.77-12.07-12.66-12.45-8.88-0.58-18 0-26.88 0-28 0-56.11-0.42-84.15 0h-1.88c-4.62 0-8.84 4.83-7.23 9.49l22.51 65.33 35.94 104.31 8.33 24.17a7.75 7.75 0 0 0 7.23 5.5h0.7l-7.23-9.49c-5.9 40.54 26 71.35 62.47 82.17 38.09 11.3 85.3 3.84 113.61-25.58 14.81-15.4 21.86-35.39 18.77-56.59l-7.23 9.49h0.69c9.65 0 9.67-15 0-15h-0.69c-5.36 0-7.92 4.77-7.24 9.5 4.7 32.22-24.86 55.87-52.69 63.92-32.17 9.31-71.84 3.87-96.54-20.14-11.71-11.39-19.1-27.22-16.69-43.78 0.69-4.73-1.88-9.5-7.23-9.5h-0.7l7.24 5.51-22.52-65.34-35.94-104.27-8.32-24.17-7.24 9.5h113l-6.47-3.72 45.8 65.48 73 104.37 16.76 24c5.49 7.81 18.5 0.29 12.95-7.61z" fill="#231815" p-id="1771"></path></svg>